<mxfile host="app.diagrams.net" modified="2023-10-05T14:28:49.978Z" agent="Mozilla/5.0 (X11; Linux x86_64; rv:109.0) Gecko/20100101 Firefox/114.0" etag="xOH9Rghldsp653uO1A57" version="22.0.2" type="github">
  <diagram id="R2lEEEUBdFMjLlhIrx00" name="Page-1">
    <mxGraphModel dx="2206" dy="1223" grid="1" gridSize="10" guides="1" tooltips="1" connect="1" arrows="1" fold="1" page="1" pageScale="1" pageWidth="850" pageHeight="1100" math="0" shadow="0" extFonts="Permanent Marker^https://fonts.googleapis.com/css?family=Permanent+Marker">
      <root>
        <mxCell id="0" />
        <mxCell id="1" parent="0" />
        <mxCell id="MjhDirLqD0ovsCGgVPhs-2" value="Estudiante" style="rounded=0;whiteSpace=wrap;html=1;" vertex="1" parent="1">
          <mxGeometry x="910" y="530" width="120" height="60" as="geometry" />
        </mxCell>
        <mxCell id="MjhDirLqD0ovsCGgVPhs-45" value="" style="endArrow=classic;html=1;rounded=0;" edge="1" parent="1">
          <mxGeometry width="50" height="50" relative="1" as="geometry">
            <mxPoint x="940" y="530" as="sourcePoint" />
            <mxPoint x="920" y="470" as="targetPoint" />
          </mxGeometry>
        </mxCell>
        <mxCell id="MjhDirLqD0ovsCGgVPhs-47" value="" style="endArrow=classic;html=1;rounded=0;exitX=0.319;exitY=0.992;exitDx=0;exitDy=0;exitPerimeter=0;" edge="1" parent="1" source="MjhDirLqD0ovsCGgVPhs-2">
          <mxGeometry width="50" height="50" relative="1" as="geometry">
            <mxPoint x="940" y="610" as="sourcePoint" />
            <mxPoint x="880" y="650" as="targetPoint" />
          </mxGeometry>
        </mxCell>
        <mxCell id="MjhDirLqD0ovsCGgVPhs-48" value="" style="endArrow=classic;html=1;rounded=0;exitX=0.25;exitY=1;exitDx=0;exitDy=0;" edge="1" parent="1" source="MjhDirLqD0ovsCGgVPhs-2">
          <mxGeometry width="50" height="50" relative="1" as="geometry">
            <mxPoint x="940" y="600" as="sourcePoint" />
            <mxPoint x="865" y="600" as="targetPoint" />
            <Array as="points">
              <mxPoint x="900" y="600.5" />
            </Array>
          </mxGeometry>
        </mxCell>
        <mxCell id="MjhDirLqD0ovsCGgVPhs-49" value="" style="endArrow=classic;html=1;rounded=0;" edge="1" parent="1">
          <mxGeometry width="50" height="50" relative="1" as="geometry">
            <mxPoint x="910" y="530" as="sourcePoint" />
            <mxPoint x="840" y="480" as="targetPoint" />
          </mxGeometry>
        </mxCell>
        <mxCell id="MjhDirLqD0ovsCGgVPhs-50" value="" style="endArrow=classic;html=1;rounded=0;" edge="1" parent="1">
          <mxGeometry width="50" height="50" relative="1" as="geometry">
            <mxPoint x="1030" y="590" as="sourcePoint" />
            <mxPoint x="1100" y="620" as="targetPoint" />
          </mxGeometry>
        </mxCell>
        <mxCell id="MjhDirLqD0ovsCGgVPhs-51" value="" style="endArrow=classic;html=1;rounded=0;" edge="1" parent="1">
          <mxGeometry width="50" height="50" relative="1" as="geometry">
            <mxPoint x="1030" y="560" as="sourcePoint" />
            <mxPoint x="1100" y="560" as="targetPoint" />
          </mxGeometry>
        </mxCell>
        <mxCell id="MjhDirLqD0ovsCGgVPhs-52" value="" style="endArrow=classic;html=1;rounded=0;" edge="1" parent="1">
          <mxGeometry width="50" height="50" relative="1" as="geometry">
            <mxPoint x="1030" y="530" as="sourcePoint" />
            <mxPoint x="1100" y="490" as="targetPoint" />
          </mxGeometry>
        </mxCell>
        <mxCell id="MjhDirLqD0ovsCGgVPhs-56" value="" style="endArrow=classic;html=1;rounded=0;" edge="1" parent="1">
          <mxGeometry width="50" height="50" relative="1" as="geometry">
            <mxPoint x="1000" y="530" as="sourcePoint" />
            <mxPoint x="1020" y="470" as="targetPoint" />
          </mxGeometry>
        </mxCell>
        <mxCell id="MjhDirLqD0ovsCGgVPhs-57" value="" style="endArrow=classic;html=1;rounded=0;" edge="1" parent="1">
          <mxGeometry width="50" height="50" relative="1" as="geometry">
            <mxPoint x="969.5" y="530" as="sourcePoint" />
            <mxPoint x="969.5" y="470" as="targetPoint" />
          </mxGeometry>
        </mxCell>
        <mxCell id="MjhDirLqD0ovsCGgVPhs-58" value="&lt;u&gt;id&lt;/u&gt;" style="ellipse;whiteSpace=wrap;html=1;" vertex="1" parent="1">
          <mxGeometry x="860" y="450" width="80" height="40" as="geometry" />
        </mxCell>
        <mxCell id="MjhDirLqD0ovsCGgVPhs-59" value="nombre" style="ellipse;whiteSpace=wrap;html=1;" vertex="1" parent="1">
          <mxGeometry x="935" y="440" width="70" height="40" as="geometry" />
        </mxCell>
        <mxCell id="MjhDirLqD0ovsCGgVPhs-60" value="apellidos" style="ellipse;whiteSpace=wrap;html=1;" vertex="1" parent="1">
          <mxGeometry x="1005" y="450" width="70" height="40" as="geometry" />
        </mxCell>
        <mxCell id="MjhDirLqD0ovsCGgVPhs-61" value="fecha nacimiento" style="ellipse;whiteSpace=wrap;html=1;" vertex="1" parent="1">
          <mxGeometry x="1080" y="460" width="60" height="40" as="geometry" />
        </mxCell>
        <mxCell id="MjhDirLqD0ovsCGgVPhs-62" value="&lt;div&gt;matrícula&lt;/div&gt;&lt;div&gt;id&lt;br&gt;&lt;/div&gt;" style="ellipse;whiteSpace=wrap;html=1;" vertex="1" parent="1">
          <mxGeometry x="1080" y="540" width="70" height="40" as="geometry" />
        </mxCell>
        <mxCell id="MjhDirLqD0ovsCGgVPhs-63" value="fecha" style="ellipse;whiteSpace=wrap;html=1;" vertex="1" parent="1">
          <mxGeometry x="1090" y="600" width="60" height="30" as="geometry" />
        </mxCell>
        <mxCell id="MjhDirLqD0ovsCGgVPhs-64" value="dirección" style="ellipse;whiteSpace=wrap;html=1;" vertex="1" parent="1">
          <mxGeometry x="780" y="460" width="70" height="50" as="geometry" />
        </mxCell>
        <mxCell id="MjhDirLqD0ovsCGgVPhs-65" value="teléfono" style="ellipse;whiteSpace=wrap;html=1;" vertex="1" parent="1">
          <mxGeometry x="810" y="580" width="70" height="40" as="geometry" />
        </mxCell>
        <mxCell id="MjhDirLqD0ovsCGgVPhs-66" value="horario" style="ellipse;whiteSpace=wrap;html=1;" vertex="1" parent="1">
          <mxGeometry x="830" y="630" width="60" height="40" as="geometry" />
        </mxCell>
        <mxCell id="MjhDirLqD0ovsCGgVPhs-110" style="edgeStyle=orthogonalEdgeStyle;rounded=0;orthogonalLoop=1;jettySize=auto;html=1;" edge="1" parent="1" source="MjhDirLqD0ovsCGgVPhs-89">
          <mxGeometry relative="1" as="geometry">
            <mxPoint x="620" y="570" as="targetPoint" />
          </mxGeometry>
        </mxCell>
        <mxCell id="MjhDirLqD0ovsCGgVPhs-89" value="Profesor" style="rounded=0;whiteSpace=wrap;html=1;" vertex="1" parent="1">
          <mxGeometry x="270" y="540" width="120" height="60" as="geometry" />
        </mxCell>
        <mxCell id="MjhDirLqD0ovsCGgVPhs-90" value="" style="endArrow=classic;html=1;rounded=0;" edge="1" parent="1">
          <mxGeometry width="50" height="50" relative="1" as="geometry">
            <mxPoint x="300" y="540" as="sourcePoint" />
            <mxPoint x="280" y="480" as="targetPoint" />
          </mxGeometry>
        </mxCell>
        <mxCell id="MjhDirLqD0ovsCGgVPhs-92" value="" style="endArrow=classic;html=1;rounded=0;" edge="1" parent="1">
          <mxGeometry width="50" height="50" relative="1" as="geometry">
            <mxPoint x="270" y="570" as="sourcePoint" />
            <mxPoint x="195" y="570" as="targetPoint" />
          </mxGeometry>
        </mxCell>
        <mxCell id="MjhDirLqD0ovsCGgVPhs-93" value="" style="endArrow=classic;html=1;rounded=0;" edge="1" parent="1">
          <mxGeometry width="50" height="50" relative="1" as="geometry">
            <mxPoint x="270" y="540" as="sourcePoint" />
            <mxPoint x="200" y="490" as="targetPoint" />
          </mxGeometry>
        </mxCell>
        <mxCell id="MjhDirLqD0ovsCGgVPhs-95" value="" style="endArrow=classic;html=1;rounded=0;" edge="1" parent="1">
          <mxGeometry width="50" height="50" relative="1" as="geometry">
            <mxPoint x="390" y="590" as="sourcePoint" />
            <mxPoint x="460" y="590" as="targetPoint" />
          </mxGeometry>
        </mxCell>
        <mxCell id="MjhDirLqD0ovsCGgVPhs-96" value="" style="endArrow=classic;html=1;rounded=0;" edge="1" parent="1">
          <mxGeometry width="50" height="50" relative="1" as="geometry">
            <mxPoint x="390" y="540" as="sourcePoint" />
            <mxPoint x="460" y="500" as="targetPoint" />
          </mxGeometry>
        </mxCell>
        <mxCell id="MjhDirLqD0ovsCGgVPhs-97" value="" style="endArrow=classic;html=1;rounded=0;" edge="1" parent="1">
          <mxGeometry width="50" height="50" relative="1" as="geometry">
            <mxPoint x="360" y="540" as="sourcePoint" />
            <mxPoint x="380" y="480" as="targetPoint" />
          </mxGeometry>
        </mxCell>
        <mxCell id="MjhDirLqD0ovsCGgVPhs-98" value="" style="endArrow=classic;html=1;rounded=0;" edge="1" parent="1">
          <mxGeometry width="50" height="50" relative="1" as="geometry">
            <mxPoint x="329.5" y="540" as="sourcePoint" />
            <mxPoint x="329.5" y="480" as="targetPoint" />
          </mxGeometry>
        </mxCell>
        <mxCell id="MjhDirLqD0ovsCGgVPhs-99" value="&lt;u&gt;id&lt;/u&gt;" style="ellipse;whiteSpace=wrap;html=1;" vertex="1" parent="1">
          <mxGeometry x="220" y="460" width="80" height="40" as="geometry" />
        </mxCell>
        <mxCell id="MjhDirLqD0ovsCGgVPhs-100" value="nombre" style="ellipse;whiteSpace=wrap;html=1;" vertex="1" parent="1">
          <mxGeometry x="295" y="450" width="70" height="40" as="geometry" />
        </mxCell>
        <mxCell id="MjhDirLqD0ovsCGgVPhs-101" value="apellidos" style="ellipse;whiteSpace=wrap;html=1;" vertex="1" parent="1">
          <mxGeometry x="365" y="460" width="70" height="40" as="geometry" />
        </mxCell>
        <mxCell id="MjhDirLqD0ovsCGgVPhs-102" value="especialidad" style="ellipse;whiteSpace=wrap;html=1;" vertex="1" parent="1">
          <mxGeometry x="440" y="470" width="60" height="40" as="geometry" />
        </mxCell>
        <mxCell id="MjhDirLqD0ovsCGgVPhs-103" value="horario" style="ellipse;whiteSpace=wrap;html=1;" vertex="1" parent="1">
          <mxGeometry x="420" y="580" width="70" height="40" as="geometry" />
        </mxCell>
        <mxCell id="MjhDirLqD0ovsCGgVPhs-105" value="teléfono" style="ellipse;whiteSpace=wrap;html=1;" vertex="1" parent="1">
          <mxGeometry x="140" y="470" width="70" height="50" as="geometry" />
        </mxCell>
        <mxCell id="MjhDirLqD0ovsCGgVPhs-106" value="varios emails" style="ellipse;whiteSpace=wrap;html=1;" vertex="1" parent="1">
          <mxGeometry x="140" y="550" width="70" height="40" as="geometry" />
        </mxCell>
        <mxCell id="MjhDirLqD0ovsCGgVPhs-111" value="enseña" style="rhombus;whiteSpace=wrap;html=1;" vertex="1" parent="1">
          <mxGeometry x="600" y="530" width="80" height="80" as="geometry" />
        </mxCell>
        <mxCell id="MjhDirLqD0ovsCGgVPhs-112" style="edgeStyle=orthogonalEdgeStyle;rounded=0;orthogonalLoop=1;jettySize=auto;html=1;exitX=1;exitY=0.5;exitDx=0;exitDy=0;entryX=0.012;entryY=0.661;entryDx=0;entryDy=0;entryPerimeter=0;" edge="1" parent="1" source="MjhDirLqD0ovsCGgVPhs-111" target="MjhDirLqD0ovsCGgVPhs-2">
          <mxGeometry relative="1" as="geometry" />
        </mxCell>
        <mxCell id="MjhDirLqD0ovsCGgVPhs-113" value="Materias" style="rounded=0;whiteSpace=wrap;html=1;" vertex="1" parent="1">
          <mxGeometry x="1555" y="110" width="120" height="60" as="geometry" />
        </mxCell>
        <mxCell id="MjhDirLqD0ovsCGgVPhs-114" value="" style="endArrow=classic;html=1;rounded=0;" edge="1" parent="1">
          <mxGeometry width="50" height="50" relative="1" as="geometry">
            <mxPoint x="1585" y="110" as="sourcePoint" />
            <mxPoint x="1565" y="50" as="targetPoint" />
          </mxGeometry>
        </mxCell>
        <mxCell id="MjhDirLqD0ovsCGgVPhs-121" value="" style="endArrow=classic;html=1;rounded=0;" edge="1" parent="1">
          <mxGeometry width="50" height="50" relative="1" as="geometry">
            <mxPoint x="1645" y="110" as="sourcePoint" />
            <mxPoint x="1665" y="50" as="targetPoint" />
          </mxGeometry>
        </mxCell>
        <mxCell id="MjhDirLqD0ovsCGgVPhs-122" value="" style="endArrow=classic;html=1;rounded=0;" edge="1" parent="1">
          <mxGeometry width="50" height="50" relative="1" as="geometry">
            <mxPoint x="1614.5" y="110" as="sourcePoint" />
            <mxPoint x="1614.5" y="50" as="targetPoint" />
          </mxGeometry>
        </mxCell>
        <mxCell id="MjhDirLqD0ovsCGgVPhs-123" value="&lt;u&gt;id&lt;/u&gt;" style="ellipse;whiteSpace=wrap;html=1;" vertex="1" parent="1">
          <mxGeometry x="1505" y="30" width="80" height="40" as="geometry" />
        </mxCell>
        <mxCell id="MjhDirLqD0ovsCGgVPhs-124" value="nombre" style="ellipse;whiteSpace=wrap;html=1;" vertex="1" parent="1">
          <mxGeometry x="1580" y="20" width="70" height="40" as="geometry" />
        </mxCell>
        <mxCell id="MjhDirLqD0ovsCGgVPhs-125" value="descripción" style="ellipse;whiteSpace=wrap;html=1;" vertex="1" parent="1">
          <mxGeometry x="1650" y="30" width="70" height="40" as="geometry" />
        </mxCell>
        <mxCell id="MjhDirLqD0ovsCGgVPhs-132" style="edgeStyle=orthogonalEdgeStyle;rounded=0;orthogonalLoop=1;jettySize=auto;html=1;" edge="1" parent="1" source="MjhDirLqD0ovsCGgVPhs-133">
          <mxGeometry relative="1" as="geometry">
            <mxPoint x="1265" y="150" as="targetPoint" />
          </mxGeometry>
        </mxCell>
        <mxCell id="MjhDirLqD0ovsCGgVPhs-150" style="edgeStyle=orthogonalEdgeStyle;rounded=0;orthogonalLoop=1;jettySize=auto;html=1;exitX=0;exitY=0;exitDx=0;exitDy=0;" edge="1" parent="1" source="MjhDirLqD0ovsCGgVPhs-133">
          <mxGeometry relative="1" as="geometry">
            <mxPoint x="880" y="119.72727272727252" as="targetPoint" />
          </mxGeometry>
        </mxCell>
        <mxCell id="MjhDirLqD0ovsCGgVPhs-151" style="edgeStyle=orthogonalEdgeStyle;rounded=0;orthogonalLoop=1;jettySize=auto;html=1;exitX=1;exitY=0;exitDx=0;exitDy=0;" edge="1" parent="1" source="MjhDirLqD0ovsCGgVPhs-133">
          <mxGeometry relative="1" as="geometry">
            <mxPoint x="1070" y="119.72727272727252" as="targetPoint" />
          </mxGeometry>
        </mxCell>
        <mxCell id="MjhDirLqD0ovsCGgVPhs-133" value="Curso" style="rounded=0;whiteSpace=wrap;html=1;" vertex="1" parent="1">
          <mxGeometry x="915" y="120" width="120" height="60" as="geometry" />
        </mxCell>
        <mxCell id="MjhDirLqD0ovsCGgVPhs-134" value="" style="endArrow=classic;html=1;rounded=0;" edge="1" parent="1">
          <mxGeometry width="50" height="50" relative="1" as="geometry">
            <mxPoint x="945" y="120" as="sourcePoint" />
            <mxPoint x="925" y="60" as="targetPoint" />
          </mxGeometry>
        </mxCell>
        <mxCell id="MjhDirLqD0ovsCGgVPhs-139" value="" style="endArrow=classic;html=1;rounded=0;" edge="1" parent="1">
          <mxGeometry width="50" height="50" relative="1" as="geometry">
            <mxPoint x="1005" y="120" as="sourcePoint" />
            <mxPoint x="1025" y="60" as="targetPoint" />
          </mxGeometry>
        </mxCell>
        <mxCell id="MjhDirLqD0ovsCGgVPhs-140" value="" style="endArrow=classic;html=1;rounded=0;" edge="1" parent="1">
          <mxGeometry width="50" height="50" relative="1" as="geometry">
            <mxPoint x="974.5" y="120" as="sourcePoint" />
            <mxPoint x="974.5" y="60" as="targetPoint" />
          </mxGeometry>
        </mxCell>
        <mxCell id="MjhDirLqD0ovsCGgVPhs-141" value="&lt;u&gt;id&lt;/u&gt;" style="ellipse;whiteSpace=wrap;html=1;" vertex="1" parent="1">
          <mxGeometry x="865" y="40" width="80" height="40" as="geometry" />
        </mxCell>
        <mxCell id="MjhDirLqD0ovsCGgVPhs-142" value="nombre" style="ellipse;whiteSpace=wrap;html=1;" vertex="1" parent="1">
          <mxGeometry x="940" y="30" width="70" height="40" as="geometry" />
        </mxCell>
        <mxCell id="MjhDirLqD0ovsCGgVPhs-143" value="horarios" style="ellipse;whiteSpace=wrap;html=1;" vertex="1" parent="1">
          <mxGeometry x="1010" y="40" width="70" height="40" as="geometry" />
        </mxCell>
        <mxCell id="MjhDirLqD0ovsCGgVPhs-148" value="enseña" style="rhombus;whiteSpace=wrap;html=1;" vertex="1" parent="1">
          <mxGeometry x="1245" y="110" width="80" height="80" as="geometry" />
        </mxCell>
        <mxCell id="MjhDirLqD0ovsCGgVPhs-149" style="edgeStyle=orthogonalEdgeStyle;rounded=0;orthogonalLoop=1;jettySize=auto;html=1;exitX=1;exitY=0.5;exitDx=0;exitDy=0;entryX=0.012;entryY=0.661;entryDx=0;entryDy=0;entryPerimeter=0;" edge="1" parent="1" source="MjhDirLqD0ovsCGgVPhs-148" target="MjhDirLqD0ovsCGgVPhs-113">
          <mxGeometry relative="1" as="geometry" />
        </mxCell>
        <mxCell id="MjhDirLqD0ovsCGgVPhs-152" value="desc" style="ellipse;whiteSpace=wrap;html=1;" vertex="1" parent="1">
          <mxGeometry x="1060" y="95" width="60" height="45" as="geometry" />
        </mxCell>
        <mxCell id="MjhDirLqD0ovsCGgVPhs-155" style="edgeStyle=orthogonalEdgeStyle;rounded=0;orthogonalLoop=1;jettySize=auto;html=1;exitX=0;exitY=0;exitDx=0;exitDy=0;" edge="1" parent="1" source="MjhDirLqD0ovsCGgVPhs-153" target="MjhDirLqD0ovsCGgVPhs-159">
          <mxGeometry relative="1" as="geometry">
            <mxPoint x="810" y="106.09090909090901" as="targetPoint" />
          </mxGeometry>
        </mxCell>
        <mxCell id="MjhDirLqD0ovsCGgVPhs-157" style="edgeStyle=orthogonalEdgeStyle;rounded=0;orthogonalLoop=1;jettySize=auto;html=1;exitX=0;exitY=0.5;exitDx=0;exitDy=0;" edge="1" parent="1" source="MjhDirLqD0ovsCGgVPhs-153">
          <mxGeometry relative="1" as="geometry">
            <mxPoint x="770" y="119.72727272727252" as="targetPoint" />
          </mxGeometry>
        </mxCell>
        <mxCell id="MjhDirLqD0ovsCGgVPhs-158" style="edgeStyle=orthogonalEdgeStyle;rounded=0;orthogonalLoop=1;jettySize=auto;html=1;exitX=0;exitY=1;exitDx=0;exitDy=0;" edge="1" parent="1" source="MjhDirLqD0ovsCGgVPhs-153">
          <mxGeometry relative="1" as="geometry">
            <mxPoint x="810" y="150" as="targetPoint" />
          </mxGeometry>
        </mxCell>
        <mxCell id="MjhDirLqD0ovsCGgVPhs-153" value="horarios" style="ellipse;whiteSpace=wrap;html=1;" vertex="1" parent="1">
          <mxGeometry x="840" y="100" width="60" height="40" as="geometry" />
        </mxCell>
        <mxCell id="MjhDirLqD0ovsCGgVPhs-159" value="&lt;u&gt;id&lt;/u&gt;" style="ellipse;whiteSpace=wrap;html=1;" vertex="1" parent="1">
          <mxGeometry x="760" y="60" width="70" height="40" as="geometry" />
        </mxCell>
        <mxCell id="MjhDirLqD0ovsCGgVPhs-160" value="dia semana" style="ellipse;whiteSpace=wrap;html=1;" vertex="1" parent="1">
          <mxGeometry x="720" y="100" width="60" height="40" as="geometry" />
        </mxCell>
        <mxCell id="MjhDirLqD0ovsCGgVPhs-161" value="horario inicio/fin" style="ellipse;whiteSpace=wrap;html=1;" vertex="1" parent="1">
          <mxGeometry x="780" y="140" width="60" height="50" as="geometry" />
        </mxCell>
        <mxCell id="MjhDirLqD0ovsCGgVPhs-162" value="Clasificaciones" style="rounded=0;whiteSpace=wrap;html=1;" vertex="1" parent="1">
          <mxGeometry x="1030" y="930" width="120" height="60" as="geometry" />
        </mxCell>
        <mxCell id="MjhDirLqD0ovsCGgVPhs-163" value="" style="endArrow=classic;html=1;rounded=0;" edge="1" parent="1">
          <mxGeometry width="50" height="50" relative="1" as="geometry">
            <mxPoint x="1060" y="930" as="sourcePoint" />
            <mxPoint x="1040" y="870" as="targetPoint" />
          </mxGeometry>
        </mxCell>
        <mxCell id="MjhDirLqD0ovsCGgVPhs-164" value="" style="endArrow=classic;html=1;rounded=0;" edge="1" parent="1">
          <mxGeometry width="50" height="50" relative="1" as="geometry">
            <mxPoint x="1120" y="930" as="sourcePoint" />
            <mxPoint x="1140" y="870" as="targetPoint" />
          </mxGeometry>
        </mxCell>
        <mxCell id="MjhDirLqD0ovsCGgVPhs-166" value="&lt;u&gt;id&lt;/u&gt;" style="ellipse;whiteSpace=wrap;html=1;" vertex="1" parent="1">
          <mxGeometry x="980" y="850" width="80" height="40" as="geometry" />
        </mxCell>
        <mxCell id="MjhDirLqD0ovsCGgVPhs-168" value="nota" style="ellipse;whiteSpace=wrap;html=1;" vertex="1" parent="1">
          <mxGeometry x="1125" y="850" width="70" height="40" as="geometry" />
        </mxCell>
        <mxCell id="MjhDirLqD0ovsCGgVPhs-174" style="edgeStyle=orthogonalEdgeStyle;rounded=0;orthogonalLoop=1;jettySize=auto;html=1;exitX=0.5;exitY=0;exitDx=0;exitDy=0;" edge="1" parent="1" source="MjhDirLqD0ovsCGgVPhs-169">
          <mxGeometry relative="1" as="geometry">
            <mxPoint x="809.9090909090908" y="1140" as="targetPoint" />
          </mxGeometry>
        </mxCell>
        <mxCell id="MjhDirLqD0ovsCGgVPhs-169" value="Asistencia" style="rounded=0;whiteSpace=wrap;html=1;" vertex="1" parent="1">
          <mxGeometry x="750" y="1140" width="120" height="60" as="geometry" />
        </mxCell>
        <mxCell id="MjhDirLqD0ovsCGgVPhs-170" value="" style="endArrow=classic;html=1;rounded=0;" edge="1" parent="1">
          <mxGeometry width="50" height="50" relative="1" as="geometry">
            <mxPoint x="780" y="1140" as="sourcePoint" />
            <mxPoint x="760" y="1080" as="targetPoint" />
          </mxGeometry>
        </mxCell>
        <mxCell id="MjhDirLqD0ovsCGgVPhs-171" value="" style="endArrow=classic;html=1;rounded=0;" edge="1" parent="1">
          <mxGeometry width="50" height="50" relative="1" as="geometry">
            <mxPoint x="840" y="1140" as="sourcePoint" />
            <mxPoint x="860" y="1080" as="targetPoint" />
          </mxGeometry>
        </mxCell>
        <mxCell id="MjhDirLqD0ovsCGgVPhs-172" value="&lt;u&gt;id&lt;/u&gt;" style="ellipse;whiteSpace=wrap;html=1;" vertex="1" parent="1">
          <mxGeometry x="700" y="1060" width="80" height="40" as="geometry" />
        </mxCell>
        <mxCell id="MjhDirLqD0ovsCGgVPhs-173" value="fecha" style="ellipse;whiteSpace=wrap;html=1;" vertex="1" parent="1">
          <mxGeometry x="845" y="1060" width="70" height="40" as="geometry" />
        </mxCell>
        <mxCell id="MjhDirLqD0ovsCGgVPhs-176" value="&lt;div&gt;Ausente/&lt;/div&gt;&lt;div&gt;Presente&lt;br&gt;&lt;/div&gt;" style="ellipse;whiteSpace=wrap;html=1;" vertex="1" parent="1">
          <mxGeometry x="790" y="1060" width="50" height="50" as="geometry" />
        </mxCell>
        <mxCell id="MjhDirLqD0ovsCGgVPhs-177" style="edgeStyle=orthogonalEdgeStyle;rounded=0;orthogonalLoop=1;jettySize=auto;html=1;entryX=0.552;entryY=0.041;entryDx=0;entryDy=0;entryPerimeter=0;endArrow=none;endFill=0;" edge="1" parent="1" source="MjhDirLqD0ovsCGgVPhs-176" target="MjhDirLqD0ovsCGgVPhs-169">
          <mxGeometry relative="1" as="geometry" />
        </mxCell>
        <mxCell id="MjhDirLqD0ovsCGgVPhs-178" style="edgeStyle=orthogonalEdgeStyle;rounded=0;orthogonalLoop=1;jettySize=auto;html=1;exitX=0.5;exitY=0;exitDx=0;exitDy=0;" edge="1" source="MjhDirLqD0ovsCGgVPhs-179" parent="1">
          <mxGeometry relative="1" as="geometry">
            <mxPoint x="1009.9090909090908" y="1450" as="targetPoint" />
          </mxGeometry>
        </mxCell>
        <mxCell id="MjhDirLqD0ovsCGgVPhs-186" style="edgeStyle=orthogonalEdgeStyle;rounded=0;orthogonalLoop=1;jettySize=auto;html=1;exitX=0;exitY=0;exitDx=0;exitDy=0;endArrow=none;endFill=0;" edge="1" parent="1" source="MjhDirLqD0ovsCGgVPhs-179" target="MjhDirLqD0ovsCGgVPhs-189">
          <mxGeometry relative="1" as="geometry">
            <mxPoint x="880" y="1449.7272727272725" as="targetPoint" />
          </mxGeometry>
        </mxCell>
        <mxCell id="MjhDirLqD0ovsCGgVPhs-187" style="edgeStyle=orthogonalEdgeStyle;rounded=0;orthogonalLoop=1;jettySize=auto;html=1;exitX=1;exitY=0;exitDx=0;exitDy=0;endArrow=none;endFill=0;" edge="1" parent="1" source="MjhDirLqD0ovsCGgVPhs-179" target="MjhDirLqD0ovsCGgVPhs-188">
          <mxGeometry relative="1" as="geometry">
            <mxPoint x="1140.909090909091" y="1440" as="targetPoint" />
          </mxGeometry>
        </mxCell>
        <mxCell id="MjhDirLqD0ovsCGgVPhs-179" value="Actividad " style="rounded=0;whiteSpace=wrap;html=1;" vertex="1" parent="1">
          <mxGeometry x="950" y="1450" width="120" height="60" as="geometry" />
        </mxCell>
        <mxCell id="MjhDirLqD0ovsCGgVPhs-180" value="" style="endArrow=classic;html=1;rounded=0;" edge="1" parent="1">
          <mxGeometry width="50" height="50" relative="1" as="geometry">
            <mxPoint x="980" y="1450" as="sourcePoint" />
            <mxPoint x="960" y="1390" as="targetPoint" />
          </mxGeometry>
        </mxCell>
        <mxCell id="MjhDirLqD0ovsCGgVPhs-181" value="" style="endArrow=classic;html=1;rounded=0;" edge="1" parent="1">
          <mxGeometry width="50" height="50" relative="1" as="geometry">
            <mxPoint x="1040" y="1450" as="sourcePoint" />
            <mxPoint x="1060" y="1390" as="targetPoint" />
          </mxGeometry>
        </mxCell>
        <mxCell id="MjhDirLqD0ovsCGgVPhs-182" value="&lt;u&gt;id&lt;/u&gt;" style="ellipse;whiteSpace=wrap;html=1;" vertex="1" parent="1">
          <mxGeometry x="900" y="1370" width="80" height="40" as="geometry" />
        </mxCell>
        <mxCell id="MjhDirLqD0ovsCGgVPhs-183" value="nombre" style="ellipse;whiteSpace=wrap;html=1;" vertex="1" parent="1">
          <mxGeometry x="1045" y="1370" width="70" height="40" as="geometry" />
        </mxCell>
        <mxCell id="MjhDirLqD0ovsCGgVPhs-184" value="&lt;div&gt;Atributos&lt;/div&gt;" style="ellipse;whiteSpace=wrap;html=1;" vertex="1" parent="1">
          <mxGeometry x="990" y="1370" width="50" height="50" as="geometry" />
        </mxCell>
        <mxCell id="MjhDirLqD0ovsCGgVPhs-185" style="edgeStyle=orthogonalEdgeStyle;rounded=0;orthogonalLoop=1;jettySize=auto;html=1;entryX=0.552;entryY=0.041;entryDx=0;entryDy=0;entryPerimeter=0;endArrow=none;endFill=0;" edge="1" source="MjhDirLqD0ovsCGgVPhs-184" target="MjhDirLqD0ovsCGgVPhs-179" parent="1">
          <mxGeometry relative="1" as="geometry" />
        </mxCell>
        <mxCell id="MjhDirLqD0ovsCGgVPhs-188" value="horario" style="ellipse;whiteSpace=wrap;html=1;" vertex="1" parent="1">
          <mxGeometry x="1125" y="1420" width="70.91" height="50" as="geometry" />
        </mxCell>
        <mxCell id="MjhDirLqD0ovsCGgVPhs-189" value="descripción" style="ellipse;whiteSpace=wrap;html=1;" vertex="1" parent="1">
          <mxGeometry x="835" y="1424.8700000000001" width="70" height="40.27" as="geometry" />
        </mxCell>
        <mxCell id="MjhDirLqD0ovsCGgVPhs-192" value="" style="endArrow=none;html=1;rounded=0;" edge="1" parent="1">
          <mxGeometry width="50" height="50" relative="1" as="geometry">
            <mxPoint x="800" y="690" as="sourcePoint" />
            <mxPoint x="800" y="640" as="targetPoint" />
          </mxGeometry>
        </mxCell>
        <mxCell id="MjhDirLqD0ovsCGgVPhs-193" value="" style="endArrow=none;html=1;rounded=0;exitX=0.5;exitY=0;exitDx=0;exitDy=0;" edge="1" parent="1" source="MjhDirLqD0ovsCGgVPhs-194" target="MjhDirLqD0ovsCGgVPhs-133">
          <mxGeometry width="50" height="50" relative="1" as="geometry">
            <mxPoint x="970" y="200" as="sourcePoint" />
            <mxPoint x="970" y="190" as="targetPoint" />
          </mxGeometry>
        </mxCell>
        <mxCell id="MjhDirLqD0ovsCGgVPhs-195" value="" style="endArrow=none;html=1;rounded=0;exitX=0.5;exitY=0;exitDx=0;exitDy=0;" edge="1" parent="1" source="MjhDirLqD0ovsCGgVPhs-59" target="MjhDirLqD0ovsCGgVPhs-194">
          <mxGeometry width="50" height="50" relative="1" as="geometry">
            <mxPoint x="970" y="440" as="sourcePoint" />
            <mxPoint x="974" y="180" as="targetPoint" />
          </mxGeometry>
        </mxCell>
        <mxCell id="MjhDirLqD0ovsCGgVPhs-194" value="matricula" style="rhombus;whiteSpace=wrap;html=1;" vertex="1" parent="1">
          <mxGeometry x="935" y="250" width="80" height="80" as="geometry" />
        </mxCell>
      </root>
    </mxGraphModel>
  </diagram>
</mxfile>
